<svg id="logomarca" version="1.1" xmlns="http://www.w3.org/2000/svg" xmlns:xlink="http://www.w3.org/1999/xlink" x="0px" y="0px" width="216.8px" height="238.545px" viewBox="0 0 216.8 238.545" enable-background="new 0 0 216.8 238.545" xml:space="preserve">
  <title>UERJ – Universidade do Estado do Rio de Janeiro</title>
  <g>
    <g>
      <path fill="#0072CE" d="M48.76,40.554l-8.071-10.35c-1.703-2.184-2.379-5.362,1.002-7.999c3.051-2.379,5.877-1.787,8.021,0.962
                          l8.072,10.351l-2.775,2.163l-7.914-10.147c-1.403-1.799-2.653-1.962-3.664-1.174c-1.213,0.946-1.07,2.266,0.19,3.883l7.914,10.146
                          L48.76,40.554z"></path>
      <path fill="#0072CE" d="M33.775,29.188l13.491,12.671l-3.254,3.466l-12.406-5.514l-0.032,0.035l9.343,8.774l-2.249,2.396
                          L25.175,38.345l3.175-3.381l13.01,5.919l0.032-0.033l-9.867-9.267L33.775,29.188z"></path>
      <path fill="#0072CE" d="M22.558,41.872l14.847,11.052l-2.101,2.822L20.457,44.695L22.558,41.872z"></path>
      <path fill="#0072CE" d="M34.542,56.465l-1.877,3.142l-12.893-4.66l-0.023,0.04l10.048,9.423l-1.78,2.98L14.41,54.077l2.115-3.541
                          L34.542,56.465z"></path>
      <path fill="#0072CE" d="M10.776,60.813l16.979,7.37l-3.656,8.423l-2.61-1.134l2.255-5.194l-4.186-1.817l-2.078,4.789l-2.61-1.133
                          l2.078-4.789l-4.962-2.153l-2.329,5.366l-2.61-1.133L10.776,60.813z"></path>
      <path fill="#0072CE" d="M4.767,76.413l0.972-3.382l17.789,5.113l-1.797,6.249c-0.663,2.308-2.715,3.318-5.745,2.447
                          c-2.267-0.651-3.734-1.947-3.498-4.255l-0.049-0.016c-0.311,0.711-1.139,2.85-4.342,1.929c-1.134-0.325-4.503-1.221-5.333-1.12
                          l0.953-3.314c1.213-0.137,2.395,0.3,3.552,0.633c2.119,0.608,3.866,1.305,4.613-1.293l0.251-0.873L4.767,76.413z M14.869,79.316
                          l-0.432,1.501c-0.387,1.344,0.982,2.15,2.115,2.476c1.7,0.488,2.527,0.023,2.837-1.052l0.431-1.5L14.869,79.316z"></path>
      <path fill="#0072CE" d="M1.015,91.755c0.625-4.313,3.532-4.716,6.677-4.072l-0.504,3.483c-1.75-0.254-3.232-0.398-3.509,1.517
                          c-0.17,1.177,0.583,1.875,1.826,2.055c3.298,0.477,4.517-6.506,9.971-5.716c2.867,0.415,4.971,1.991,4.356,6.235
                          c-0.491,3.391-2.409,4.831-6.207,4.046l0.49-3.391c1.37,0.198,2.796,0.194,3-1.214c0.163-1.13-0.425-1.897-1.693-2.081
                          c-3.476-0.503-4.187,6.552-9.946,5.718C0.731,97.648,0.631,94.408,1.015,91.755z"></path>
      <path fill="#0072CE" d="M0.31,101.396l18.492,0.794l-0.15,3.515l-18.492-0.793L0.31,101.396z"></path>
      <path fill="#0072CE" d="M18.471,108.128l0.373,5.861c0.293,4.605-3.029,5.681-8.786,6.046c-2.84,0.182-9.313,0.99-9.695-5.01
                          L0,109.304L18.471,108.128z M3.063,112.635l0.108,1.697c0.136,2.14,1.928,2.446,6.558,2.151c3.403-0.216,6.396-0.406,6.241-2.848
                          l-0.115-1.814L3.063,112.635z"></path>
      <path fill="#0072CE" d="M1.1,124.02l19.075,0.661l0.976,4.534l-17.132,8.36l-0.78-3.622l3.813-1.774l-1.011-4.693l-4.21-0.071
                          L1.1,124.02z M17.138,127.505l-0.01-0.046l-8.158,0.111l0.706,3.28L17.138,127.505z"></path>
      <path fill="#0072CE" d="M22.448,134.46l2.079,5.492c1.634,4.315-1.226,6.319-6.62,8.361c-2.661,1.007-8.61,3.684-10.739-1.939
                          l-2.03-5.361L22.448,134.46z M9.045,143.295l0.602,1.592c0.759,2.006,2.562,1.771,6.901,0.129c3.189-1.208,5.994-2.27,5.128-4.559
                          l-0.644-1.699L9.045,143.295z"></path>
      <path fill="#0072CE" d="M11.129,155.7l16.263-8.837l4.385,8.067l-2.501,1.359l-2.704-4.977l-4.009,2.179l2.492,4.587l-2.5,1.359
                          l-2.493-4.588l-4.752,2.583l2.793,5.14l-2.5,1.358L11.129,155.7z"></path>
      <path fill="#0072CE" d="M38.368,164.331l3.962,4.335c3.113,3.405,1.197,6.325-3.061,10.216c-2.1,1.921-6.639,6.605-10.695,2.167
                          l-3.868-4.23L38.368,164.331z M29.18,177.496l1.148,1.255c1.446,1.583,3.034,0.7,6.46-2.432c2.517-2.3,4.73-4.323,3.079-6.13
                          l-1.227-1.341L29.18,177.496z"></path>
      <path fill="#0072CE" d="M41.484,181.118c3.089-3.799,6.032-7.42,10.535-3.759c4.502,3.661,1.559,7.281-1.53,11.081
                          c-3.057,3.758-6.032,7.418-10.535,3.757C35.452,188.536,38.427,184.878,41.484,181.118z M47.722,186.19
                          c2.992-3.681,4.087-5.433,2.55-6.683c-1.537-1.249-3.03,0.181-6.021,3.859c-2.992,3.68-4.087,5.433-2.55,6.683
                          S44.73,189.87,47.722,186.19z"></path>
      <path fill="#0072CE" d="M58.466,204.104l7.875-16.749l8.31,3.906l-1.21,2.575l-5.125-2.41l-1.941,4.13l4.724,2.221l-1.211,2.575
                          l-4.724-2.221l-2.302,4.895l5.294,2.489l-1.211,2.575L58.466,204.104z"></path>
      <path fill="#0072CE" d="M74.849,211.213c-4.15-1.33-4.066-4.265-2.912-7.26l3.352,1.073c-0.539,1.685-0.927,3.122,0.916,3.713
                          c1.132,0.362,1.944-0.266,2.328-1.462c1.016-3.174-5.668-5.53-3.986-10.779c0.883-2.759,2.785-4.571,6.869-3.264
                          c3.263,1.045,4.367,3.176,2.964,6.791l-3.263-1.046c0.422-1.318,0.652-2.725-0.701-3.157c-1.088-0.349-1.942,0.104-2.333,1.324
                          c-1.071,3.344,5.77,5.213,3.994,10.755C80.614,212.467,77.402,212.03,74.849,211.213z"></path>
      <path fill="#0072CE" d="M97.758,197.241l-0.552,3.027l-3.852-0.704l-2.771,15.182l-3.462-0.632l2.771-15.182l-3.852-0.703
                          l0.552-3.025L97.758,197.241z"></path>
      <path fill="#0072CE" d="M94.912,215.582l5.763-18.195l4.63,0.278l3.448,18.75l-3.698-0.223l-0.685-4.151l-4.792-0.287l-1.2,4.037
                          L94.912,215.582z M102.578,201.071l-0.046-0.003l-2.086,7.887l3.351,0.201L102.578,201.071z"></path>
      <path fill="#0072CE" d="M110.737,197.831l5.852-0.507c4.597-0.397,5.747,2.899,6.244,8.646c0.245,2.834,1.2,9.287-4.789,9.806
                          l-5.713,0.494L110.737,197.831z M115.592,213.132l1.694-0.146c2.136-0.185,2.402-1.982,2.002-6.605
                          c-0.294-3.397-0.552-6.386-2.989-6.175l-1.812,0.157L115.592,213.132z"></path>
      <path fill="#0072CE" d="M125.955,205.573c-1.141-4.762-2.228-9.299,3.416-10.65s6.73,3.186,7.871,7.947
                          c1.128,4.711,2.228,9.299-3.416,10.65S127.084,210.285,125.955,205.573z M133.773,203.7c-1.104-4.611-1.831-6.546-3.757-6.085
                          c-1.928,0.462-1.698,2.516-0.594,7.127c1.104,4.613,1.832,6.547,3.758,6.086C135.107,210.366,134.878,208.312,133.773,203.7z"></path>
      <path fill="#0072CE" d="M146.015,189.667l5.172-2.784c4.063-2.188,6.426,0.385,9.161,5.463c1.349,2.505,4.783,8.05-0.511,10.9
                          l-5.047,2.718L146.015,189.667z M156.539,201.791l1.499-0.808c1.888-1.016,1.418-2.772-0.781-6.857
                          c-1.616-3.003-3.038-5.644-5.192-4.483l-1.601,0.861L156.539,201.791z"></path>
      <path fill="#0072CE" d="M163.056,190.74c-2.935-3.92-5.729-7.656-1.082-11.133c4.646-3.476,7.441,0.26,10.374,4.18
                          c2.903,3.879,5.729,7.656,1.082,11.133C168.785,198.396,165.958,194.619,163.056,190.74z M169.493,185.923
                          c-2.841-3.797-4.275-5.285-5.861-4.099c-1.585,1.187-0.562,2.982,2.278,6.78c2.842,3.797,4.276,5.285,5.861,4.099
                          C173.358,191.517,172.334,189.721,169.493,185.923z"></path>
      <path fill="#0072CE" d="M191.722,177.146l-2.212,2.736l-14.395-11.636l4.088-5.056c1.509-1.867,3.792-2,6.244-0.018
                          c1.834,1.482,2.682,3.247,1.565,5.281l0.04,0.032c0.563-0.533,2.158-2.181,4.749-0.086c0.917,0.741,3.673,2.879,4.477,3.108
                          l-2.168,2.683c-1.171-0.348-2.09-1.21-3.026-1.966c-1.714-1.387-3.052-2.708-4.753-0.605l-0.57,0.707L191.722,177.146z
                          M183.548,170.539l0.981-1.214c0.879-1.088-0.068-2.363-0.985-3.104c-1.376-1.112-2.318-1.006-3.022-0.137l-0.981,1.214
                          L183.548,170.539z"></path>
      <path fill="#0072CE" d="M198.196,168.54l-15.494-10.123l1.924-2.946l15.495,10.123L198.196,168.54z"></path>
      <path fill="#0072CE" d="M194.154,157.897c-4.365-2.219-8.523-4.333-5.895-9.507c2.63-5.172,6.789-3.058,11.154-0.839
                          c4.318,2.195,8.523,4.333,5.894,9.506S198.472,160.093,194.154,157.897z M197.796,150.729c-4.228-2.148-6.172-2.849-7.068-1.083
                          c-0.899,1.766,0.814,2.924,5.041,5.072c4.228,2.148,6.173,2.85,7.07,1.084C203.736,154.036,202.025,152.879,197.796,150.729z"></path>
      <path fill="#0072CE" d="M195.056,132.311l1.232-5.741c0.969-4.513,4.458-4.646,10.099-3.435c2.781,0.598,9.231,1.578,7.969,7.456
                          l-1.203,5.604L195.056,132.311z M211.109,132.158l0.357-1.663c0.449-2.097-1.191-2.878-5.729-3.853
                          c-3.333-0.716-6.266-1.346-6.779,1.048l-0.382,1.777L211.109,132.158z"></path>
      <path fill="#0072CE" d="M216.087,120.612l-18.456-1.411l0.701-9.156l2.836,0.219l-0.431,5.646l4.55,0.349l0.397-5.206l2.837,0.217
                          l-0.397,5.206l5.393,0.411l0.446-5.831l2.837,0.217L216.087,120.612z"></path>
      <path fill="#0072CE" d="M196.522,89.785l14.04-2.136c3.193-0.485,4.92,1.656,5.295,4.121c0.739,4.862-1.46,5.408-5.616,6.041
                          l-0.54-3.549c1.47-0.224,3.695-0.256,3.419-2.075c-0.119-0.783-0.989-1.217-1.774-1.098l-14.294,2.174L196.522,89.785z"></path>
      <path fill="#0072CE" d="M214.284,83.83l-19.071,0.769L193.9,80.15l16.458-9.62l1.049,3.554l-3.67,2.056l1.359,4.604l4.203-0.244
                          L214.284,83.83z M198.03,81.556l0.013,0.045l8.127-0.723l-0.951-3.218L198.03,81.556z"></path>
      <path fill="#0072CE" d="M209.003,67.134l-16.717,7.945l-2.041-4.294l9.656-9.543l-0.02-0.043l-11.577,5.502l-1.41-2.968
                          l16.716-7.944l1.992,4.188l-10.256,9.957l0.021,0.041l12.225-5.81L209.003,67.134z"></path>
      <path fill="#0072CE" d="M201.159,51.73l-15.424,10.232l-5.076-7.652l2.371-1.572l3.131,4.719l3.803-2.522l-2.886-4.351
                          l2.371-1.573l2.886,4.351l4.507-2.99l-3.233-4.874l2.371-1.573L201.159,51.73z"></path>
      <path fill="#0072CE" d="M193.803,41.217l-14.391,11.639L177.2,50.12l14.392-11.64L193.803,41.217z"></path>
      <path fill="#0072CE" d="M186.456,32.762l2.477,2.5l-13.145,13.029l-4.577-4.617c-1.689-1.705-1.571-3.989,0.669-6.209
                          c1.674-1.66,3.521-2.309,5.42-0.976l0.036-0.037c-0.469-0.617-1.931-2.384,0.438-4.73c0.837-0.83,3.263-3.334,3.579-4.107
                          l2.429,2.449c-0.473,1.126-1.431,1.943-2.286,2.792c-1.565,1.553-3.026,2.737-1.123,4.657l0.64,0.646L186.456,32.762z
                          M178.991,40.162l-1.099-1.109c-0.985-0.992-2.356-0.192-3.193,0.638c-1.257,1.246-1.255,2.194-0.467,2.989l1.1,1.108
                          L178.991,40.162z"></path>
      <path fill="#0072CE" d="M172.848,32.426c-2.957,3.901-5.776,7.619-10.401,4.114c-4.624-3.507-1.805-7.224,1.152-11.126
                          c2.928-3.86,5.778-7.62,10.402-4.113C178.625,24.807,175.775,28.565,172.848,32.426z M166.441,27.568
                          c-2.864,3.779-3.899,5.568-2.32,6.766c1.578,1.195,3.021-0.283,5.886-4.063c2.866-3.779,3.901-5.568,2.322-6.765
                          C170.75,22.31,169.306,23.788,166.441,27.568z"></path>
    </g>
    <g class="teste">
      <path fill="#0072CE" d="M63.648,145.916c0,1.84,0.266,3.128,0.797,3.869c0.531,0.74,1.433,1.109,2.7,1.109
                          c1.505,0,2.585-0.364,3.24-1.093c0.656-0.728,0.983-1.925,0.983-3.591v-10.806c0-0.937-0.108-1.509-0.324-1.716
                          c-0.217-0.209-0.713-0.313-1.491-0.313h-1.134v-3.352h10.306v3.352h-1.017c-0.774,0-1.272,0.106-1.493,0.321
                          c-0.221,0.213-0.33,0.75-0.33,1.604v11.5c0,2.551-0.857,4.49-2.57,5.816c-1.713,1.327-4.225,1.99-7.532,1.99
                          c-3.008,0-5.334-0.653-6.983-1.964c-1.648-1.311-2.472-3.16-2.472-5.548v-11.691c0-0.9-0.113-1.465-0.34-1.689
                          c-0.227-0.227-0.731-0.34-1.518-0.34h-1.13v-3.352h13.402v3.352h-1.231c-0.8,0-1.311,0.113-1.531,0.34
                          c-0.222,0.225-0.332,0.789-0.332,1.689V145.916z"></path>
      <path fill="#0072CE" d="M106.583,130.024v8.889h-3.514c-0.227-1.161-0.467-2.066-0.721-2.716
                          c-0.253-0.649-0.563-1.172-0.928-1.566c-0.422-0.453-0.934-0.775-1.537-0.967c-0.604-0.19-1.579-0.288-2.926-0.288H96.29h-2.871
                          v6.557h0.864c1.012,0,1.722-0.258,2.129-0.777c0.408-0.52,0.612-1.44,0.612-2.769v-0.206h2.769v10.89h-2.769
                          c-0.044-1.672-0.248-2.757-0.612-3.257c-0.363-0.499-1.063-0.75-2.096-0.75h-0.897v7.43h3.959c1.521,0,2.568-0.096,3.146-0.292
                          c0.576-0.197,1.021-0.533,1.334-1.006c0.345-0.567,0.617-1.256,0.816-2.071c0.199-0.814,0.331-1.841,0.396-3.076h3.642v9.834
                          H83.257v-3.389h1.117c0.732,0,1.216-0.09,1.448-0.275c0.231-0.184,0.348-0.715,0.348-1.591v-0.174v-13.026
                          c0-0.934-0.108-1.511-0.324-1.727c-0.216-0.218-0.717-0.324-1.505-0.324h-1.084v-3.352H106.583z"></path>
      <path fill="#0072CE" d="M115.609,148.434v-13.005c0-0.924-0.106-1.492-0.323-1.705c-0.217-0.215-0.719-0.321-1.508-0.321h-1.118
                          v-3.378h15.302c2.702,0,4.718,0.492,6.049,1.476c1.329,0.983,1.995,2.472,1.995,4.462c0,1.34-0.41,2.469-1.229,3.384
                          c-0.821,0.913-1.981,1.538-3.481,1.873c1.513,0.197,2.536,0.692,3.07,1.485c0.536,0.792,0.803,2.606,0.803,5.442
                          c0,0.857,0.066,1.45,0.201,1.779c0.134,0.33,0.355,0.496,0.666,0.496c0.298,0,0.521-0.203,0.665-0.611
                          c0.145-0.406,0.217-1.021,0.217-1.849c0-0.078-0.006-0.215-0.017-0.4c-0.012-0.186-0.016-0.324-0.016-0.419h2.258
                          c0,0.106,0.004,0.265,0.016,0.48c0.012,0.215,0.016,0.376,0.016,0.479c0,2.23-0.425,3.851-1.275,4.854
                          c-0.853,1.006-2.225,1.508-4.12,1.508c-2.015,0-3.483-0.454-4.404-1.359c-0.92-0.906-1.38-2.347-1.38-4.321v-2.002
                          c0-1.59-0.198-2.6-0.593-3.032s-1.214-0.647-2.456-0.647h-1.987v5.332c0,0.932,0.111,1.508,0.331,1.728
                          c0.222,0.223,0.714,0.332,1.479,0.332h1.259v3.389H112.66v-3.389h1.118c0.777,0,1.277-0.109,1.5-0.332
                          C115.499,149.941,115.609,149.365,115.609,148.434z M122.893,139.86h1.938c1.365,0,2.323-0.234,2.878-0.702
                          c0.552-0.468,0.83-1.248,0.83-2.346c0-1.2-0.256-2.041-0.767-2.527c-0.511-0.483-1.409-0.727-2.7-0.727h-2.18V139.86z"></path>
      <path fill="#0072CE" d="M153.332,135.417c0-0.931-0.107-1.503-0.323-1.719c-0.214-0.216-0.714-0.322-1.498-0.322h-1.237v-3.352
                          h13.257v3.352h-1.032c-0.731,0-1.209,0.093-1.435,0.277c-0.226,0.188-0.338,0.717-0.338,1.587v0.175v10.475
                          c0,1.762-0.146,3.111-0.437,4.048c-0.292,0.938-0.776,1.736-1.455,2.396c-0.776,0.765-1.744,1.335-2.902,1.711
                          c-1.159,0.377-2.521,0.563-4.083,0.563c-2.457,0-4.451-0.629-5.981-1.891c-1.531-1.261-2.296-2.881-2.296-4.859
                          c0-1.503,0.409-2.721,1.229-3.651c0.818-0.932,1.885-1.396,3.198-1.396c0.981,0,1.757,0.297,2.328,0.891
                          c0.571,0.595,0.856,1.394,0.856,2.396c0,0.948-0.258,1.713-0.774,2.296s-1.193,0.874-2.032,0.874c-0.141,0-0.286-0.01-0.437-0.027
                          c-0.149-0.016-0.312-0.041-0.483-0.078c0.269,0.578,0.624,1.013,1.065,1.3c0.441,0.288,0.963,0.433,1.566,0.433
                          c1.215,0,2.061-0.355,2.533-1.064c0.474-0.71,0.711-2.139,0.711-4.285V135.417z"></path>
    </g>
  </g>
  <g>
    <path fill="#AD841F" d="M82.857,83.156c-1.021,1.168-3.365-1.495-6.3,4.648c-8.931,1.03-9.959,6.654-8.609,7.308
                          c0.501,0.192,0.438,0.069,0.438,0.069c0.41-3.563,7.128-5.865,9.04-6.323c2.394-6.376,4.957-3.927,5.876-5.179
                          c0.604-3.056,1.724-3.415,1.724-3.415S83.725,80.162,82.857,83.156z"></path>
    <path fill="#AD841F" d="M149.402,95.384c-0.072-3.488-6.217-4.806-7.876-5.271c0,0-33.361,0-34.681,0
                          c-1.807-0.007,0.908,5.262,2.221,5.262C110.406,95.375,149.402,95.384,149.402,95.384z"></path>
    <g>
      <path fill="#AD841F" d="M148.728,96.863c-1.182,0.007-79.949,0-79.949,0c-1.989-0.059,0.177,1.785,2.447,3.694
                          c1.168,1.019,0.889,0.656,1.998,1.769c3.818,4.278,1.205,12.756,15.493,17.154c0,0,0.339,2.344,1.529,2.351
                          c1.189,0.004,34.981,0.02,36.416,0c1.433-0.022,1.787-2.351,1.787-2.351c14.291-4.398,11.678-12.876,15.497-17.154
                          c1.111-1.112,0.829-0.75,1.998-1.769C148.218,98.648,149.914,96.856,148.728,96.863z M105.431,116.902
                          c-4.82,0.976-9.024,2.729-11.283,2.734c-1.717,0.007-2.907-2.345-2.907-2.345c-12.513-3.879-12.789-10.105-14.086-13.862
                          c-1.299-3.758-4.219-5.138-0.797-5.138l35.194,0.102c0,0,7.584,1.243,9.869,6.829
                          C123.939,112.736,114.137,115.139,105.431,116.902z"></path>
    </g>
    <path fill="#AD841F" d="M106.223,79.856c-0.797,0-1.485,0.426-1.3,2.121c-5.061,0-10.175,0.004-11.638,0.01
                          c-0.805,0.003-0.741,1.274-0.741,1.274l42.486-0.004c-0.644-3.061-1.863-3.401-1.863-3.401H106.223z"></path>
    <path fill="#AD841F" d="M106.615,84.681c-1.442-0.005-1.32,1.261-1.252,2.231c-2.244,0-16.873,0-18.081,0
                          c-1.022,0-0.888,1.455-0.888,1.455l53.818,0.005c-0.833-3.241-3.547-3.686-3.547-3.686L106.615,84.681z"></path>
    <path fill-rule="evenodd" clip-rule="evenodd" fill="#AD841F" d="M125.989,124.366c0,0.572-0.287,1.032-0.646,1.032H91.527
                          c-0.356,0-0.646-0.46-0.646-1.032l0,0c0-0.571,0.289-1.03,0.646-1.03h33.816C125.702,123.336,125.989,123.795,125.989,124.366
                          L125.989,124.366z"></path>
    <g>
      <path fill="#AD841F" d="M100.238,159.005c-1.289,0.001-1.657,0.003-2.948,0.003l3.479,31.123c0.982,0.335,0.81,0.276,1.927,0.585
                          L100.238,159.005z"></path>
      <g>
        <path fill="#AD841F" d="M102.683,159.003l1.177,32.028c0.664,0.11,2.046,0.335,3.722,0.403L107.168,159
                          C105.489,159,103.886,159.001,102.683,159.003z M109.655,159.003l-0.408,32.252l-0.002,0.189c1.63-0.049,3.064-0.253,3.734-0.362
                          l1.154-32.07C112.932,159.006,111.333,159.004,109.655,159.003z"></path>
      </g>
      <path fill="#AD841F" d="M119.581,159.066c-1.283-0.016-1.641-0.028-2.923-0.037l-2.353,31.706c0.976-0.231,0.963-0.231,1.85-0.539
                          L119.581,159.066z"></path>
    </g>
    <path fill-rule="evenodd" clip-rule="evenodd" fill="#AD841F" d="M104.606,223.254c0,0,0.84,0.583,3.769,0.583
                          c2.928,0,3.89-0.583,3.89-0.583l-1.432,13.196c0,0-0.343,2.095-2.388,2.095c-2.044,0-2.34-2.088-2.34-2.088L104.606,223.254z"></path>
  </g>
  <g>
    <path fill-rule="evenodd" clip-rule="evenodd" fill="#F9423A" d="M154.588,41.12c0.065,0.812,0.173,12.433-17.124,11.418
                          c-0.68-0.04-1.507-0.304-2.131-0.232c31.813-20.998-2.275-27.791-5.343-37.303c-0.309,4.093,1.381,5.386,2.959,9.097
                          c1.521,3.572,1.214,5.209,1.214,5.209s-17.001-11.536-14.25-22.354c0.162-0.641-6.355,4.47-4.971,13.545
                          c1.104,7.232,1.628,18.885-17.574,21.382c-10.499,1.364-38.961,7.435-37.246,22.146c1.714,14.71,31.175,12.918,31.175,12.918
                          c8.104,0,4.609-6.686-0.178-8.95c-8.29-3.72-8.3-12.751,12.509-16.684c-10.359,6.341-8.828,9.803-1.025,13.87
                          c8.844,4.529,0.878,11.717,4.713,11.727c2.979,0.126,8.208,0.146,10.979,0.144c4.782-0.075-17.965-10.643,5.635-24.092
                          c-11.166,15.733,3.307,22.864,5.556,22.961c2.249,0.096-7.561-9.134,11.781-13.278C161.227,58.367,154.588,41.12,154.588,41.12z"></path>
    <path fill-rule="evenodd" clip-rule="evenodd" fill="#F9423A" d="M77.577,34.646c-5.325,5.464-4.897,9.902-4.897,9.902
                          s4.664-4.184,9.059-5.714c4.262-1.482,10.872-1.89,16.695-3.575c6.529-1.89,12.962-8.99,9.008-18.574
                          C104.205,8.839,99.321,6.026,100.653,0c-3.213,2.468-4.775,5.674-5.071,9.85c-0.396,5.617,3.55,9.449-0.995,14.304
                          C89.458,29.633,83.917,28.909,77.577,34.646z"></path>
    <path fill-rule="evenodd" clip-rule="evenodd" fill="#F9423A" d="M68.689,42.138c0,0,0.474-12.059,14.061-17.558
                          c14.554-5.891,2.493-22.768-6.815-20.971c4.592,3.171,10.414,10.923,2.253,15.922C61.503,29.748,68.689,42.138,68.689,42.138z"></path>
  </g>
</svg>