<svg id="logotipo" version="1.1" xmlns="http://www.w3.org/2000/svg" xmlns:xlink="http://www.w3.org/1999/xlink" x="0px" y="0px" width="311.056px" height="69.403px" viewBox="150.573 567.489 311.056 69.403" enable-background="new 150.573 567.489 311.056 69.403" xml:space="preserve">
  <title>UERJ – Universidade do Estado do Rio de Janeiro</title>
  <g>
    <path fill="#016BA5" d="M179.67,612.355c0,5.194,0.751,8.83,2.25,10.922c1.499,2.089,4.045,3.131,7.622,3.131
		c4.248,0,7.297-1.027,9.146-3.086c1.852-2.055,2.774-5.434,2.774-10.137v-30.504c0-2.646-0.305-4.26-0.915-4.844
		c-0.612-0.59-2.013-0.884-4.208-0.884h-3.201v-9.463h29.092v9.463h-2.87c-2.186,0-3.591,0.299-4.215,0.906
		c-0.624,0.601-0.932,2.117-0.932,4.527v32.464c0,7.201-2.419,12.674-7.255,16.417c-4.836,3.746-11.927,5.618-21.262,5.618
		c-8.491,0-15.058-1.844-19.712-5.544c-4.652-3.701-6.979-8.921-6.979-15.662v-33.002c0-2.54-0.319-4.136-0.96-4.768
		c-0.641-0.641-2.063-0.96-4.285-0.96h-3.189v-9.462h37.832v9.462h-3.475c-2.259,0-3.701,0.319-4.322,0.96
		c-0.627,0.635-0.938,2.228-0.938,4.768V612.355L179.67,612.355z"></path>
    <path fill="#016BA5" d="M300.87,567.494v25.093h-9.919c-0.641-3.277-1.318-5.832-2.035-7.667c-0.715-1.832-1.59-3.309-2.62-4.42
		c-1.191-1.279-2.637-2.188-4.339-2.73c-1.705-0.536-4.457-0.813-8.26-0.813h-1.883h-8.104v18.51h2.439
		c2.856,0,4.86-0.729,6.01-2.193c1.151-1.468,1.728-4.065,1.728-7.816v-0.582h7.816v30.741h-7.816
		c-0.124-4.72-0.7-7.782-1.728-9.194c-1.024-1.408-3.001-2.117-5.917-2.117h-2.532v20.975h11.176c4.294,0,7.249-0.271,8.881-0.824
		c1.626-0.557,2.882-1.505,3.766-2.84c0.974-1.601,1.742-3.546,2.304-5.847c0.562-2.298,0.935-5.197,1.118-8.683h10.28v27.76h-66.21
		v-9.566h3.153c2.065,0,3.433-0.255,4.087-0.776c0.652-0.52,0.982-2.019,0.982-4.491v-0.491v-36.771
		c0-2.636-0.305-4.265-0.914-4.875c-0.61-0.615-2.024-0.914-4.249-0.914h-3.06v-9.463h65.846V567.494z"></path>
    <path fill="#016BA5" d="M326.35,619.464v-36.712c0-2.608-0.299-4.212-0.912-4.813c-0.612-0.607-2.029-0.906-4.257-0.906h-3.155
		v-9.536h43.195c7.627,0,13.318,1.39,17.075,4.167c3.752,2.774,5.632,6.978,5.632,12.596c0,3.782-1.157,6.97-3.469,9.553
		c-2.318,2.577-5.593,4.342-9.827,5.287c4.271,0.556,7.159,1.953,8.667,4.191c1.513,2.236,2.267,7.356,2.267,15.362
		c0,2.419,0.186,4.094,0.567,5.022c0.378,0.932,1.002,1.399,1.88,1.399c0.841,0,1.471-0.572,1.877-1.725
		c0.409-1.146,0.612-2.882,0.612-5.219c0-0.221-0.017-0.607-0.048-1.13c-0.033-0.524-0.045-0.914-0.045-1.183h6.374
		c0,0.3,0.012,0.748,0.045,1.355c0.034,0.606,0.045,1.062,0.045,1.352c0,6.295-1.199,10.871-3.599,13.702
		c-2.408,2.84-6.281,4.257-11.63,4.257c-5.688,0-9.832-1.281-12.433-3.836c-2.597-2.558-3.896-6.625-3.896-12.197v-5.651
		c0-4.488-0.559-7.34-1.674-8.56c-1.115-1.219-3.427-1.826-6.933-1.826h-5.609v15.052c0,2.631,0.313,4.257,0.935,4.878
		c0.627,0.629,2.016,0.937,4.175,0.937h3.554v9.567h-37.738v-9.567h3.155c2.193,0,3.605-0.308,4.234-0.937
		C326.039,623.718,326.35,622.092,326.35,619.464z M346.911,595.26h5.471c3.854,0,6.558-0.661,8.125-1.982
		c1.558-1.32,2.343-3.522,2.343-6.622c0-3.388-0.723-5.762-2.165-7.134c-1.442-1.363-3.978-2.052-7.622-2.052h-6.154v17.79H346.911z
		"></path>
    <path fill="#016BA5" d="M432.837,582.719c0-2.629-0.302-4.243-0.911-4.853c-0.604-0.61-2.016-0.909-4.229-0.909h-3.491v-9.463
		h37.423v9.463h-2.913c-2.064,0-3.413,0.263-4.051,0.781c-0.639,0.531-0.955,2.024-0.955,4.48v0.494v29.569
		c0,4.974-0.412,8.782-1.233,11.427c-0.824,2.648-2.19,4.901-4.107,6.764c-2.19,2.16-4.923,3.769-8.191,4.83
		c-3.271,1.064-7.116,1.59-11.526,1.59c-6.936,0-12.564-1.776-16.883-5.339c-4.322-3.56-6.481-8.132-6.481-13.716
		c0-4.243,1.154-7.681,3.469-10.307c2.31-2.631,5.321-3.94,9.028-3.94c2.769,0,4.959,0.838,6.571,2.515
		c1.611,1.68,2.416,3.936,2.416,6.764c0,2.677-0.728,4.836-2.185,6.481c-1.457,1.646-3.368,2.468-5.736,2.468
		c-0.397,0-0.808-0.028-1.233-0.076c-0.421-0.046-0.881-0.116-1.363-0.221c0.759,1.632,1.762,2.859,3.006,3.67
		c1.245,0.813,2.719,1.223,4.421,1.223c3.43,0,5.818-1.002,7.15-3.004c1.338-2.004,2.007-6.038,2.007-12.096V582.719
		L432.837,582.719z"></path>
  </g>
</svg>